<svg xmlns="http://www.w3.org/2000/svg" xmlns:xlink="http://www.w3.org/1999/xlink" width="100" zoomAndPan="magnify" viewBox="0 0 75 74.999997" height="100" preserveAspectRatio="xMidYMid meet" version="1.0"><defs><g/></defs><rect x="-7.5" width="90" fill="#ffffff" y="-7.5" height="89.999996" fill-opacity="1"/><rect x="-7.5" width="90" fill="#ffffff" y="-7.5" height="89.999996" fill-opacity="1"/><rect x="-7.5" width="90" fill="#f06449" y="-7.5" height="89.999996" fill-opacity="1"/><g fill="#ffffff" fill-opacity="1"><g transform="translate(16.125, 50.062495)"><g><path d="M 9.5 0.34375 C 8.03125 0.34375 6.734375 -0.00390625 5.609375 -0.703125 C 4.484375 -1.410156 3.601562 -2.472656 2.96875 -3.890625 C 2.332031 -5.304688 2.015625 -7.0625 2.015625 -9.15625 C 2.015625 -11.25 2.34375 -13.003906 3 -14.421875 C 3.664062 -15.847656 4.582031 -16.910156 5.75 -17.609375 C 6.914062 -18.316406 8.269531 -18.671875 9.8125 -18.671875 C 11.03125 -18.671875 12.125 -18.441406 13.09375 -17.984375 C 14.070312 -17.523438 14.910156 -16.769531 15.609375 -15.71875 L 15.96875 -15.78125 L 15.96875 -25.671875 L 18.671875 -25.671875 L 18.671875 0 L 15.96875 0 L 15.96875 -2.671875 L 15.609375 -2.734375 C 15.015625 -1.828125 14.203125 -1.085938 13.171875 -0.515625 C 12.148438 0.0546875 10.925781 0.34375 9.5 0.34375 Z M 10.34375 -2.078125 C 12.050781 -2.078125 13.414062 -2.660156 14.4375 -3.828125 C 15.457031 -4.992188 15.96875 -6.769531 15.96875 -9.15625 C 15.96875 -11.539062 15.457031 -13.316406 14.4375 -14.484375 C 13.414062 -15.660156 12.050781 -16.25 10.34375 -16.25 C 8.582031 -16.25 7.222656 -15.675781 6.265625 -14.53125 C 5.316406 -13.394531 4.84375 -11.601562 4.84375 -9.15625 C 4.84375 -4.4375 6.675781 -2.078125 10.34375 -2.078125 Z M 10.34375 -2.078125 "/></g></g></g><g fill="#ffffff" fill-opacity="1"><g transform="translate(37.99428, 50.062495)"><g><path d="M 11.859375 0 L 9.015625 0 L 9.015625 -9.53125 L 0.625 -24.28125 L 3.75 -24.28125 L 10.296875 -12.90625 L 10.71875 -12.90625 L 17.203125 -24.28125 L 20.265625 -24.28125 L 11.859375 -9.53125 Z M 11.859375 0 "/></g></g></g></svg>